<?xml version="1.0" encoding="utf-8"?>
<!-- Generator: Adobe Illustrator 24.0.3, SVG Export Plug-In . SVG Version: 6.00 Build 0)  -->
<!DOCTYPE svg PUBLIC "-//W3C//DTD SVG 1.1//EN" "http://www.w3.org/Graphics/SVG/1.1/DTD/svg11.dtd" [
	<!ENTITY ns_extend "http://ns.adobe.com/Extensibility/1.0/">
	<!ENTITY ns_ai "http://ns.adobe.com/AdobeIllustrator/10.0/">
	<!ENTITY ns_graphs "http://ns.adobe.com/Graphs/1.0/">
	<!ENTITY ns_vars "http://ns.adobe.com/Variables/1.0/">
	<!ENTITY ns_imrep "http://ns.adobe.com/ImageReplacement/1.0/">
	<!ENTITY ns_sfw "http://ns.adobe.com/SaveForWeb/1.0/">
	<!ENTITY ns_custom "http://ns.adobe.com/GenericCustomNamespace/1.0/">
	<!ENTITY ns_adobe_xpath "http://ns.adobe.com/XPath/1.0/">
]>
<svg version="1.1" id="svg2457" xmlns:x="&ns_extend;" xmlns:i="&ns_ai;" xmlns:graph="&ns_graphs;"
	 xmlns="http://www.w3.org/2000/svg" xmlns:xlink="http://www.w3.org/1999/xlink" x="0px" y="0px" viewBox="0 0 365.2 547.7"
	 style="enable-background:new 0 0 365.2 547.7;" xml:space="preserve">
<style type="text/css">
	.st0{fill:#5599FF;}
	.st1{fill:#FFFFFF;}
</style>
<metadata  id="metadata2454">
	<sfw  xmlns="&ns_sfw;">
		<slices></slices>
		<sliceSourceBounds  bottomLeftOrigin="true" height="547.7" width="365.2" x="777.4" y="266.1"></sliceSourceBounds>
	</sfw>
</metadata>
<g id="layer1" transform="translate(0,-11.249992)">
	<g id="g4620" transform="translate(692.30682,-14044.68)">
		<g id="g4513" transform="matrix(1.82584,0,0,1.82584,-1211.3103,-2406.3608)">
			<path id="path4509" class="st0" d="M386.4,9016.3c-6.7-0.1-13.3,0.4-19.9,1.6c-52.1,9.4-87.8,57.8-81.5,110.3
				c1.6,13.1,5.8,25.8,12.3,37.3l0,0l0.7,1.4l0.1,0.1l86.2,149.4l87-150.8l0,0c8.5-15,13-31.9,13-49.2l-2.8-23.6
				C470.7,9048.6,431.7,9017.3,386.4,9016.3L386.4,9016.3z"/>
			<path id="path4511" class="st1" d="M435.5,9115.8c0,27.2-21.2,49.7-48.3,51.3c-27.1,1.6-50.8-18.2-54.1-45.2
				c-3.2-27,15.1-51.8,41.9-56.7c26.8-4.8,52.7,12,59.1,38.4"/>
		</g>
	</g>
</g>
</svg>
